<svg 
  xmlns="http://www.w3.org/2000/svg" 
  style="display: none;">

<!-- lien SVG https://www.svgrepo.com/  -->

<!-- LOGO SVG Facebook-->
<symbol id="facebook"  viewBox="0 0 48 48">
  <g id="Icons" stroke="none" stroke-width="1" fill="none" fill-rule="evenodd">
    <g id="Color-" transform="translate(-200.000000, -160.000000)" fill="#4460A0">
      <path d="M225.638355,208 L202.649232,208 C201.185673,208 200,206.813592 200,205.350603 L200,162.649211 C200,161.18585 201.185859,160 202.649232,160 L245.350955,160 C246.813955,160 248,161.18585 248,162.649211 L248,205.350603 C248,206.813778 246.813769,208 245.350955,208 L233.119305,208 L233.119305,189.411755 L239.358521,189.411755 L240.292755,182.167586 L233.119305,182.167586 L233.119305,177.542641 C233.119305,175.445287 233.701712,174.01601 236.70929,174.01601 L240.545311,174.014333 L240.545311,167.535091 C239.881886,167.446808 237.604784,167.24957 234.955552,167.24957 C229.424834,167.24957 225.638355,170.625526 225.638355,176.825209 L225.638355,182.167586 L219.383122,182.167586 L219.383122,189.411755 L225.638355,189.411755 L225.638355,208 L225.638355,208 Z">
      </path>
    </g>
  </g>
</symbol>

<!-- logo mattermost-->
<svg id="mattermost" viewBox="0 0 256 256" version="1.1" xmlns="http://www.w3.org/2000/svg" xmlns:xlink="http://www.w3.org/1999/xlink" preserveAspectRatio="xMidYMid" fill="#000000"><g id="SVGRepo_bgCarrier" stroke-width="0"></g><g id="SVGRepo_tracerCarrier" stroke-linecap="round" stroke-linejoin="round"></g><g id="SVGRepo_iconCarrier"> <g> <path d="M6.79123171,86.9648684 C25.2351716,32.4823178 76.783459,-1.43234143 131.421839,0.0464773399 L131.421839,0.0464773399 L113.909757,20.739032 C81.4957329,26.5997669 53.5072568,48.7337413 42.5072761,81.2287969 C26.140539,129.576353 53.572705,182.545803 103.779303,199.543648 C153.985902,216.538377 207.952658,191.12264 224.319395,142.7782 C235.283535,110.390667 226.589826,75.9306053 204.563374,51.5978814 L204.563374,51.5978814 L203.21701,24.4290666 C247.371203,56.4768925 267.622761,114.633895 249.208429,169.029181 C226.546194,235.970273 153.909545,271.865521 86.9684532,249.204844 C20.0273609,226.542609 -15.8694453,153.905961 6.79123171,86.9648684 Z M165.185344,11.9237762 C165.839826,11.6401671 166.594039,11.5793938 167.321762,11.8256038 C168.035459,12.0671391 168.585536,12.5580009 168.936152,13.1595015 L168.936152,13.1595015 L169.007833,13.2763734 L169.071723,13.4103864 C169.240019,13.7313945 169.383381,14.0991514 169.450388,14.5510559 C169.582343,15.4417519 169.641535,17.5358595 169.665634,19.6808502 L169.671365,20.2662434 C169.677102,20.9486534 169.679633,21.6256073 169.680171,22.2599793 L169.680173,22.7924325 C169.678741,24.5267431 169.663874,25.8268542 169.663874,25.8268542 L169.663874,25.8268542 L170.167202,44.7600977 L170.910507,66.6151379 L171.837691,104.59538 C171.837691,104.59538 171.83785,104.602367 171.838064,104.616156 L171.838772,104.677745 C171.838883,104.691349 171.838983,104.706608 171.839058,104.723498 L171.839105,104.844231 C171.832023,107.013302 171.387173,122.892918 160.122454,133.928662 C148.009853,145.795053 133.131285,144.708923 123.451177,141.433394 C113.771069,138.154749 101.293828,129.979951 98.8800345,113.195592 C96.8283098,98.9302108 104.41287,86.9390787 106.734401,83.6627102 L106.889339,83.4459953 C107.205256,83.0081712 107.389865,82.7777388 107.389865,82.7777388 L107.389865,82.7777388 L131.197445,53.1717559 L145.064682,36.2627333 L156.965355,21.5275276 C156.965355,21.5275276 158.715313,19.1834331 160.51647,16.874806 L160.876881,16.4142586 C161.477025,15.6498178 162.070275,14.9069442 162.593713,14.2737698 L162.898895,13.907734 C163.342593,13.3805415 163.71955,12.9564826 163.983901,12.6998055 C164.292443,12.4006135 164.608776,12.205827 164.918876,12.0546727 L164.918876,12.0546727 L165.146386,11.9393591 Z" fill="#0058CC"> </path> </g> </g></svg>

<!--logo discord-->
<svg id="discord" viewBox="0 -28.5 256 256" version="1.1" xmlns="http://www.w3.org/2000/svg" xmlns:xlink="http://www.w3.org/1999/xlink" preserveAspectRatio="xMidYMid" fill="#000000"><g id="SVGRepo_bgCarrier" stroke-width="0"></g><g id="SVGRepo_tracerCarrier" stroke-linecap="round" stroke-linejoin="round"></g><g id="SVGRepo_iconCarrier"> <g> <path d="M216.856339,16.5966031 C200.285002,8.84328665 182.566144,3.2084988 164.041564,0 C161.766523,4.11318106 159.108624,9.64549908 157.276099,14.0464379 C137.583995,11.0849896 118.072967,11.0849896 98.7430163,14.0464379 C96.9108417,9.64549908 94.1925838,4.11318106 91.8971895,0 C73.3526068,3.2084988 55.6133949,8.86399117 39.0420583,16.6376612 C5.61752293,67.146514 -3.4433191,116.400813 1.08711069,164.955721 C23.2560196,181.510915 44.7403634,191.567697 65.8621325,198.148576 C71.0772151,190.971126 75.7283628,183.341335 79.7352139,175.300261 C72.104019,172.400575 64.7949724,168.822202 57.8887866,164.667963 C59.7209612,163.310589 61.5131304,161.891452 63.2445898,160.431257 C105.36741,180.133187 151.134928,180.133187 192.754523,160.431257 C194.506336,161.891452 196.298154,163.310589 198.110326,164.667963 C191.183787,168.842556 183.854737,172.420929 176.223542,175.320965 C180.230393,183.341335 184.861538,190.991831 190.096624,198.16893 C211.238746,191.588051 232.743023,181.531619 254.911949,164.955721 C260.227747,108.668201 245.831087,59.8662432 216.856339,16.5966031 Z M85.4738752,135.09489 C72.8290281,135.09489 62.4592217,123.290155 62.4592217,108.914901 C62.4592217,94.5396472 72.607595,82.7145587 85.4738752,82.7145587 C98.3405064,82.7145587 108.709962,94.5189427 108.488529,108.914901 C108.508531,123.290155 98.3405064,135.09489 85.4738752,135.09489 Z M170.525237,135.09489 C157.88039,135.09489 147.510584,123.290155 147.510584,108.914901 C147.510584,94.5396472 157.658606,82.7145587 170.525237,82.7145587 C183.391518,82.7145587 193.761324,94.5189427 193.539891,108.914901 C193.539891,123.290155 183.391518,135.09489 170.525237,135.09489 Z" fill="#5865F2" fill-rule="nonzero"> </path> </g> </g></svg>


<!-- LOGO SVG whatsapp-->
<svg id="whatsapp" viewBox="-1.5 0 259 259" version="1.1" xmlns="http://www.w3.org/2000/svg" xmlns:xlink="http://www.w3.org/1999/xlink" preserveAspectRatio="xMidYMid" fill="#000000"><g id="SVGRepo_bgCarrier" stroke-width="0"></g><g id="SVGRepo_tracerCarrier" stroke-linecap="round" stroke-linejoin="round"></g><g id="SVGRepo_iconCarrier"> <g> <path d="M67.6631045,221.823373 L71.8484512,223.916047 C89.2873956,234.379413 108.819013,239.262318 128.350631,239.262318 L128.350631,239.262318 C189.735716,239.262318 239.959876,189.038158 239.959876,127.653073 C239.959876,98.3556467 228.101393,69.7557778 207.17466,48.8290445 C186.247927,27.9023111 158.345616,16.0438289 128.350631,16.0438289 C66.9655467,16.0438289 16.7413867,66.2679889 17.4389445,128.350631 C17.4389445,149.277365 23.7169645,169.50654 34.1803311,186.945485 L36.9705622,191.130831 L25.8096378,232.28674 L67.6631045,221.823373 Z" fill="#00E676"> </path> <path d="M219.033142,37.66812 C195.316178,13.2535978 162.530962,0 129.048189,0 C57.8972956,0 0.697557778,57.8972956 1.39511556,128.350631 C1.39511556,150.67248 7.67313556,172.296771 18.1365022,191.828389 L0,258.096378 L67.6631045,240.657433 C86.4971645,251.1208 107.423898,256.003705 128.350631,256.003705 L128.350631,256.003705 C198.803967,256.003705 256.003705,198.106409 256.003705,127.653073 C256.003705,93.4727423 242.750107,61.3850845 219.033142,37.66812 Z M129.048189,234.379413 L129.048189,234.379413 C110.214129,234.379413 91.380069,229.496509 75.3362401,219.7307 L71.1508934,217.638027 L30.6925422,228.101393 L41.1559089,188.3406 L38.3656778,184.155253 C7.67313556,134.628651 22.3218489,69.05822 72.5460089,38.3656778 C122.770169,7.67313556 187.643042,22.3218489 218.335585,72.5460089 C249.028127,122.770169 234.379413,187.643042 184.155253,218.335585 C168.111425,228.798951 148.579807,234.379413 129.048189,234.379413 Z M190.433273,156.9505 L182.760138,153.462711 C182.760138,153.462711 171.599213,148.579807 164.623636,145.092018 C163.926078,145.092018 163.22852,144.39446 162.530962,144.39446 C160.438289,144.39446 159.043173,145.092018 157.648058,145.789576 L157.648058,145.789576 C157.648058,145.789576 156.9505,146.487133 147.184691,157.648058 C146.487133,159.043173 145.092018,159.740731 143.696902,159.740731 L142.999345,159.740731 C142.301787,159.740731 140.906671,159.043173 140.209113,158.345616 L136.721325,156.9505 L136.721325,156.9505 C129.048189,153.462711 122.072611,149.277365 116.492149,143.696902 C115.097033,142.301787 113.00436,140.906671 111.609245,139.511556 C106.72634,134.628651 101.843436,129.048189 98.3556467,122.770169 L97.658089,121.375053 C96.9605312,120.677496 96.9605312,119.979938 96.2629734,118.584822 C96.2629734,117.189707 96.2629734,115.794591 96.9605312,115.097033 C96.9605312,115.097033 99.7507623,111.609245 101.843436,109.516571 C103.238551,108.121456 103.936109,106.028782 105.331225,104.633667 C106.72634,102.540993 107.423898,99.7507623 106.72634,97.658089 C106.028782,94.1703001 97.658089,75.3362401 95.5654156,71.1508934 C94.1703001,69.05822 92.7751845,68.3606623 90.6825112,67.6631045 L88.5898378,67.6631045 C87.1947223,67.6631045 85.1020489,67.6631045 83.0093756,67.6631045 C81.6142601,67.6631045 80.2191445,68.3606623 78.8240289,68.3606623 L78.1264712,69.05822 C76.7313556,69.7557778 75.3362401,71.1508934 73.9411245,71.8484512 C72.5460089,73.2435667 71.8484512,74.6386823 70.4533356,76.0337978 C65.5704312,82.3118178 62.7802,89.9849534 62.7802,97.658089 L62.7802,97.658089 C62.7802,103.238551 64.1753156,108.819013 66.2679889,113.701918 L66.9655467,115.794591 C73.2435667,129.048189 81.6142601,140.906671 92.7751845,151.370038 L95.5654156,154.160269 C97.658089,156.252942 99.7507623,157.648058 101.145878,159.740731 C115.794591,172.296771 132.535978,181.365022 151.370038,186.247927 C153.462711,186.945485 156.252942,186.945485 158.345616,187.643042 L158.345616,187.643042 C160.438289,187.643042 163.22852,187.643042 165.321193,187.643042 C168.808982,187.643042 172.994329,186.247927 175.78456,184.852811 C177.877233,183.457696 179.272349,183.457696 180.667465,182.06258 L182.06258,180.667465 C183.457696,179.272349 184.852811,178.574791 186.247927,177.179676 C187.643042,175.78456 189.038158,174.389445 189.735716,172.994329 C191.130831,170.204098 191.828389,166.716309 192.525947,163.22852 C192.525947,161.833405 192.525947,159.740731 192.525947,158.345616 C192.525947,158.345616 191.828389,157.648058 190.433273,156.9505 Z" fill="#FFFFFF"> </path> </g> </g></svg>

<!-- LOGO SVG slack-->
<svg id="slack" viewBox="0 0 16 16" xmlns="http://www.w3.org/2000/svg" fill="none"><g id="SVGRepo_bgCarrier" stroke-width="0"></g><g id="SVGRepo_tracerCarrier" stroke-linecap="round" stroke-linejoin="round"></g><g id="SVGRepo_iconCarrier"> <g fill-rule="evenodd" clip-rule="evenodd"> <path fill="#E01E5A" d="M2.471 11.318a1.474 1.474 0 001.47-1.471v-1.47h-1.47A1.474 1.474 0 001 9.846c.001.811.659 1.469 1.47 1.47zm3.682-2.942a1.474 1.474 0 00-1.47 1.471v3.683c.002.811.66 1.468 1.47 1.47a1.474 1.474 0 001.47-1.47V9.846a1.474 1.474 0 00-1.47-1.47z"></path> <path fill="#36C5F0" d="M4.683 2.471c.001.811.659 1.469 1.47 1.47h1.47v-1.47A1.474 1.474 0 006.154 1a1.474 1.474 0 00-1.47 1.47zm2.94 3.682a1.474 1.474 0 00-1.47-1.47H2.47A1.474 1.474 0 001 6.153c.002.812.66 1.469 1.47 1.47h3.684a1.474 1.474 0 001.47-1.47z"></path> <path fill="#2EB67D" d="M9.847 7.624a1.474 1.474 0 001.47-1.47V2.47A1.474 1.474 0 009.848 1a1.474 1.474 0 00-1.47 1.47v3.684c.002.81.659 1.468 1.47 1.47zm3.682-2.941a1.474 1.474 0 00-1.47 1.47v1.47h1.47A1.474 1.474 0 0015 6.154a1.474 1.474 0 00-1.47-1.47z"></path> <path fill="#ECB22E" d="M8.377 9.847c.002.811.659 1.469 1.47 1.47h3.683A1.474 1.474 0 0015 9.848a1.474 1.474 0 00-1.47-1.47H9.847a1.474 1.474 0 00-1.47 1.47zm2.94 3.682a1.474 1.474 0 00-1.47-1.47h-1.47v1.47c.002.812.659 1.469 1.47 1.47a1.474 1.474 0 001.47-1.47z"></path> </g> </g></svg>



<!-- LOGO SVG instagram
<svg id="instagram"  viewBox="0 0 32 32" fill="none" xmlns="http://www.w3.org/2000/svg"><g id="SVGRepo_bgCarrier" stroke-width="0"></g><g id="SVGRepo_tracerCarrier" stroke-linecap="round" stroke-linejoin="round"></g><g id="SVGRepo_iconCarrier"> <rect x="2" y="2" width="28" height="28" rx="6" fill="url(#paint0_radial_87_7153)"></rect> <rect x="2" y="2" width="28" height="28" rx="6" fill="url(#paint1_radial_87_7153)"></rect> <rect x="2" y="2" width="28" height="28" rx="6" fill="url(#paint2_radial_87_7153)"></rect> <path d="M23 10.5C23 11.3284 22.3284 12 21.5 12C20.6716 12 20 11.3284 20 10.5C20 9.67157 20.6716 9 21.5 9C22.3284 9 23 9.67157 23 10.5Z" fill="white"></path> <path fill-rule="evenodd" clip-rule="evenodd" d="M16 21C18.7614 21 21 18.7614 21 16C21 13.2386 18.7614 11 16 11C13.2386 11 11 13.2386 11 16C11 18.7614 13.2386 21 16 21ZM16 19C17.6569 19 19 17.6569 19 16C19 14.3431 17.6569 13 16 13C14.3431 13 13 14.3431 13 16C13 17.6569 14.3431 19 16 19Z" fill="white"></path> <path fill-rule="evenodd" clip-rule="evenodd" d="M6 15.6C6 12.2397 6 10.5595 6.65396 9.27606C7.2292 8.14708 8.14708 7.2292 9.27606 6.65396C10.5595 6 12.2397 6 15.6 6H16.4C19.7603 6 21.4405 6 22.7239 6.65396C23.8529 7.2292 24.7708 8.14708 25.346 9.27606C26 10.5595 26 12.2397 26 15.6V16.4C26 19.7603 26 21.4405 25.346 22.7239C24.7708 23.8529 23.8529 24.7708 22.7239 25.346C21.4405 26 19.7603 26 16.4 26H15.6C12.2397 26 10.5595 26 9.27606 25.346C8.14708 24.7708 7.2292 23.8529 6.65396 22.7239C6 21.4405 6 19.7603 6 16.4V15.6ZM15.6 8H16.4C18.1132 8 19.2777 8.00156 20.1779 8.0751C21.0548 8.14674 21.5032 8.27659 21.816 8.43597C22.5686 8.81947 23.1805 9.43139 23.564 10.184C23.7234 10.4968 23.8533 10.9452 23.9249 11.8221C23.9984 12.7223 24 13.8868 24 15.6V16.4C24 18.1132 23.9984 19.2777 23.9249 20.1779C23.8533 21.0548 23.7234 21.5032 23.564 21.816C23.1805 22.5686 22.5686 23.1805 21.816 23.564C21.5032 23.7234 21.0548 23.8533 20.1779 23.9249C19.2777 23.9984 18.1132 24 16.4 24H15.6C13.8868 24 12.7223 23.9984 11.8221 23.9249C10.9452 23.8533 10.4968 23.7234 10.184 23.564C9.43139 23.1805 8.81947 22.5686 8.43597 21.816C8.27659 21.5032 8.14674 21.0548 8.0751 20.1779C8.00156 19.2777 8 18.1132 8 16.4V15.6C8 13.8868 8.00156 12.7223 8.0751 11.8221C8.14674 10.9452 8.27659 10.4968 8.43597 10.184C8.81947 9.43139 9.43139 8.81947 10.184 8.43597C10.4968 8.27659 10.9452 8.14674 11.8221 8.0751C12.7223 8.00156 13.8868 8 15.6 8Z" fill="white"></path> <defs> <radialGradient id="paint0_radial_87_7153" cx="0" cy="0" r="1" gradientUnits="userSpaceOnUse" gradientTransform="translate(12 23) rotate(-55.3758) scale(25.5196)"> <stop stop-color="#B13589"></stop> <stop offset="0.79309" stop-color="#C62F94"></stop> <stop offset="1" stop-color="#8A3AC8"></stop> </radialGradient> <radialGradient id="paint1_radial_87_7153" cx="0" cy="0" r="1" gradientUnits="userSpaceOnUse" gradientTransform="translate(11 31) rotate(-65.1363) scale(22.5942)"> <stop stop-color="#E0E8B7"></stop> <stop offset="0.444662" stop-color="#FB8A2E"></stop> <stop offset="0.71474" stop-color="#E2425C"></stop> <stop offset="1" stop-color="#E2425C" stop-opacity="0"></stop> </radialGradient> <radialGradient id="paint2_radial_87_7153" cx="0" cy="0" r="1" gradientUnits="userSpaceOnUse" gradientTransform="translate(0.500002 3) rotate(-8.1301) scale(38.8909 8.31836)"> <stop offset="0.156701" stop-color="#406ADC"></stop> <stop offset="0.467799" stop-color="#6A45BE"></stop> <stop offset="1" stop-color="#6A45BE" stop-opacity="0"></stop> </radialGradient> </defs> </g></svg>-->


<!-- SVG simplifié pour le logo d'Instagram -->
<svg id="instagram" viewBox="0 0 32 32" xmlns="http://www.w3.org/2000/svg">
    <rect x="2" y="2" width="28" height="28" rx="6" fill="#E1306C"></rect> <!-- Arrière-plan en rose -->

    <!-- Formes blanches pour les éléments du logo -->
    <path d="M23 10.5C23 11.3284 22.3284 12 21.5 12C20.6716 12 20 11.3284 20 10.5C20 9.67157 20.6716 9 21.5 9C22.3284 9 23 9.67157 23 10.5Z" fill="white"></path>

    <path fill-rule="evenodd" clip-rule="evenodd" d="M16 21C18.7614 21 21 18.7614 21 16C21 13.2386 18.7614 11 16 11C13.2386 11 11 13.2386 11 16C11 18.7614 13.2386 21 16 21ZM16 19C17.6569 19 19 17.6569 19 16C19 14.3431 17.6569 13 16 13C14.3431 13 13 14.3431 13 16C13 17.6569 14.3431 19 16 19Z" fill="white"></path>

    <path fill-rule="evenodd" clip-rule="evenodd" d="M6 15.6C6 12.2397 6 10.5595 6.65396 9.27606C7.2292 8.14708 8.14708 7.2292 9.27606 6.65396C10.5595 6 12.2397 6 15.6 6H16.4C19.7603 6 21.4405 6 22.7239 6.65396C23.8529 7.2292 24.7708 8.14708 25.346 9.27606C26 10.5595 26 12.2397 26 15.6V16.4C26 19.7603 26 21.4405 25.346 22.7239C24.7708 23.8529 23.8529 24.7708 22.7239 25.346C21.4405 26 19.7603 26 16.4 26H15.6C12.2397 26 10.5595 26 9.27606 25.346C8.14708 24.7708 7.2292 23.8529 6.65396 22.7239C6 21.4405 6 19.7603 6 16.4V15.6ZM15.6 8H16.4C18.1132 8 19.2777 8.00156 20.1779 8.0751C21.0548 8.14674 21.5032 8.27659 21.816 8.43597C22.5686 8.81947 23.1805 9.43139 23.564 10.184C23.7234 10.4968 23.8533 10.9452 23.9249 11.8221C23.9984 12.7223 24 13.8868 24 15.6V16.4C24 18.1132 23.9984 19.2777 23.9249 20.1779C23.8533 21.0548 23.7234 21.5032 23.564 21.816C23.1805 22.5686 22.5686 23.1805 21.816 23.564C21.5032 23.7234 21.0548 23.8533 20.1779 23.9249C19.2777 23.9984 18.1132 24 16.4 24H15.6C13.8868 24 12.7223 23.9984 11.8221 23.9249C10.9452 23.8533 10.4968 23.7234 10.184 23.564C9.43139 23.1805 8.81947 22.5686 8.43597 21.816C8.27659 21.5032 8.14674 21.0548 8.0751 20.1779C8.00156 19.2777 8 18.1132 8 16.4V15.6C8 13.8868 8.00156 12.7223 8.0751 11.8221C8.14674 10.9452 8.27659 10.4968 8.43597 10.184C8.81947 9.43139 9.43139 8.81947 10.184 8.43597C10.4968 8.27659 10.9452 8.14674 11.8221 8.0751C12.7223 8.00156 13.8868 8 15.6 8Z" fill="white"></path>
</svg>


<!-- LOGO SVG linkedin-->
<svg id="linkedin" viewBox="0 0 256 256" xmlns="http://www.w3.org/2000/svg" fill="#000000"><g id="SVGRepo_bgCarrier" stroke-width="0"></g><g id="SVGRepo_tracerCarrier" stroke-linecap="round" stroke-linejoin="round"></g><g id="SVGRepo_iconCarrier"> <g fill="none"> <path d="M0 18.338C0 8.216 8.474 0 18.92 0h218.16C247.53 0 256 8.216 256 18.338v219.327C256 247.79 247.53 256 237.08 256H18.92C8.475 256 0 247.791 0 237.668V18.335z" fill="#069"></path> <path d="M77.796 214.238V98.986H39.488v115.252H77.8zM58.65 83.253c13.356 0 21.671-8.85 21.671-19.91-.25-11.312-8.315-19.915-21.417-19.915-13.111 0-21.674 8.603-21.674 19.914 0 11.06 8.312 19.91 21.169 19.91h.248zM99 214.238h38.305v-64.355c0-3.44.25-6.889 1.262-9.346 2.768-6.885 9.071-14.012 19.656-14.012 13.858 0 19.405 10.568 19.405 26.063v61.65h38.304v-66.082c0-35.399-18.896-51.872-44.099-51.872-20.663 0-29.738 11.549-34.78 19.415h.255V98.99H99.002c.5 10.812-.003 115.252-.003 115.252z" fill="#ffffff"></path> </g> </g></svg>

<!-- LOGO SVG pinterest
<svg id="pinterest" viewBox="0 0 360 360" id="Layer_1" xmlns="http://www.w3.org/2000/svg" fill="#000000">
<g id="SVGRepo_bgCarrier" stroke-width="0"/>
<g id="SVGRepo_tracerCarrier" stroke-linecap="round" stroke-linejoin="round"/>
<g id="SVGRepo_iconCarrier">
<style>.st0{fill:#ca2127}.st1{fill:#fff}</style>
<path class="st0" d="M354.7 179.5c0 96.8-78.5 175.3-175.3 175.3-96.8 0-175.3-78.5-175.3-175.3C4.1 82.7 82.6 4.2 179.4 4.2c96.8 0 175.3 78.5 175.3 175.3z"/>
<path class="st1" d="M164.7 62.9c-49.4 5.3-98.6 43.3-100.6 97.7-1.3 33.2 12.6 58.1 45.8 65.1 3.8-15.7 4.5-24.2 4.5-24.2s-14.6-14-16.1-22.9C86.1 107 185 58.1 236.9 108.1c35.8 34.7 12.2 141.4-45.6 130.3-55.4-10.6 27.1-95.5-17.1-112.2-35.9-13.6-55 41.5-38 68.8-10 47-31.5 91.3-22.8 150.2 28.3-19.5 37.8-56.9 45.6-95.9 14.2 8.2 21.8 16.8 39.9 18.1 66.8 4.9 104.1-63.5 95-126.7-8.2-56-66.8-84.5-129.2-77.8z"/>
</g>
</svg>-->


<!-- SVG simplifié pour le logo Pinterest -->
<svg id="pinterest" viewBox="0 0 360 360" xmlns="http://www.w3.org/2000/svg">
    <!-- Cercle d'arrière-plan rouge -->
    <path d="M354.7 179.5c0 96.8-78.5 175.3-175.3 175.3-96.8 0-175.3-78.5-175.3-175.3C4.1 82.7 82.6 4.2 179.4 4.2c96.8 0 175.3 78.5 175.3 175.3z" fill="#ca2127"/>

    <!-- Logo Pinterest en blanc -->
    <path d="M164.7 62.9c-49.4 5.3-98.6 43.3-100.6 97.7-1.3 33.2 12.6 58.1 45.8 65.1 3.8-15.7 4.5-24.2 4.5-24.2s-14.6-14-16.1-22.9C86.1 107 185 58.1 236.9 108.1c35.8 34.7 12.2 141.4-45.6 130.3-55.4-10.6 27.1-95.5-17.1-112.2-35.9-13.6-55 41.5-38 68.8-10 47-31.5 91.3-22.8 150.2 28.3-19.5 37.8-56.9 45.6-95.9 14.2 8.2 21.8 16.8 39.9 18.1 66.8 4.9 104.1-63.5 95-126.7-8.2-56-66.8-84.5-129.2-77.8z" fill="#fff"/>
</svg>


<!-- LOGO SVG github-->
<svg id="github" viewBox="0 -0.5 24 24" fill="none"><g id="SVGRepo_bgCarrier" stroke-width="0"></g><g id="SVGRepo_tracerCarrier" stroke-linecap="round" stroke-linejoin="round"></g><g id="SVGRepo_iconCarrier"><path fill-rule="evenodd" clip-rule="evenodd" d="M12.2047 0.00001C6.56031 -0.005731 1.74628 4.08615 0.842541 9.6577C-0.061195 15.2293 3.2126 20.6331 8.56941 22.4118C9.14823 22.5177 9.35294 22.1577 9.35294 21.8541C9.35294 21.5506 9.35294 20.8588 9.35294 19.8988C6.14117 20.5977 5.46353 18.3529 5.46353 18.3529C5.25046 17.6572 4.79779 17.0595 4.18588 16.6659C3.14823 15.96 4.27059 15.96 4.27059 15.96C5.00761 16.0641 5.65578 16.5014 6.02823 17.1459C6.34368 17.7179 6.87393 18.1406 7.50179 18.3208C8.12965 18.5009 8.8034 18.4236 9.37411 18.1059C9.41842 17.5252 9.66876 16.9794 10.08 16.5671C7.5247 16.2777 4.84235 15.2894 4.84235 10.92C4.82481 9.7786 5.24688 8.67412 6.02117 7.8353C5.67632 6.84285 5.71662 5.7571 6.13412 4.79295C6.13412 4.79295 7.10117 4.48236 9.29647 5.97177C11.1816 5.45419 13.1713 5.45419 15.0565 5.97177C17.2518 4.48236 18.2118 4.79295 18.2118 4.79295C18.6351 5.74689 18.6854 6.82486 18.3529 7.81412C19.1272 8.65294 19.5493 9.7574 19.5318 10.8988C19.5318 15.3177 16.8424 16.2847 14.28 16.5459C14.8359 17.1047 15.1218 17.8774 15.0635 18.6635C15.0635 20.2024 15.0635 21.4447 15.0635 21.8188C15.0635 22.1929 15.2682 22.4824 15.8541 22.3694C21.1473 20.5447 24.3569 15.1728 23.4554 9.6469C22.5539 4.1211 17.8034 0.04779 12.2047 0.00001z" fill="#000"></path></g></svg>














<!-- LOGO SVG titre exemple-->
<symbol id="icon-enminuscule" viewBox="-4 0 264 264">
</symbol>
</svg>
