<svg 
  xmlns="http://www.w3.org/2000/svg" 
  style="display: none;">

<!-- lien SVG https://www.svgrepo.com/  -->




<!-- LOGO SVG audit-securite-->
<symbol id="audit-securite" viewBox="0 0 1024 1024" class="icon" version="1.1" fill="none">
<g id="SVGRepo_bgCarrier" stroke-width="0"></g>
<g id="SVGRepo_tracerCarrier" stroke-linecap="round" stroke-linejoin="round"></g>
<g id="SVGRepo_iconCarrier">
<path d="M579.3 245c-27.6-18.8-47.5-38.7-60.1-53.2-12.6 14.5-32.6 34.3-60.3 53.2-51.7 35.2-110.9 54.6-176.4 57.9v232.9c0 8.5 1.1 18.4 3.4 29.4 0 0 28.5 179.4 233.3 272.1 0 0 148.7-56.3 214-214 15.2-34.7 22.4-65.8 22.4-87.5V302.9c-65.5-3.3-124.7-22.7-176.3-57.9z" fill="#002366"></path><path d="M618.8 500.7l44.5-95.4H600l-44.5 95.4zM422.2 405.3l-44.5 95.4H441l44.5-95.4zM574.4 405.3h-63.3l-44.5 95.4h63.3zM299.3 405.3v95.4h52.8l44.5-95.4zM738.9 500.7v-95.4h-50l-44.5 95.4z" fill="#00A36C"></path><path d="M519.1 837.3c-80.4-34.8-138.6-91.1-177.2-147.5-20.9-7-41-14.5-60.2-22.2 8.1 15.2 17.2 30.4 27.3 45 35.7 51.9 99.7 122.6 201.8 164.5 2.7 1.1 5.5 1.7 8.3 1.7 2.8 0 5.6-0.5 8.3-1.6 74.3-30.6 128.4-76.3 166.1-119-16.7-0.8-33.9-2.1-51.4-3.8-33.1 32.4-73.9 61.7-123 82.9zM891.3 553.2c-7.4-6.6-15.9-13.3-25.5-19.9-19.5-13.7-43.2-27.4-70.3-40.6V285.5c0-12.2-9.8-22.1-21.8-22.1-64.5-0.3-122.3-17.6-171.9-51.4-38.5-26.2-59.2-53.9-64.7-61.8-4.1-5.9-10.8-9.5-18-9.5-7.1 0-13.9 3.5-18 9.4-5.5 7.9-26.3 35.6-64.8 61.8-49.7 33.8-107.6 51.1-172 51.4-12 0.1-21.8 10-21.8 22.1V378c-12.4 0.8-24.1 1.9-35.1 3.4-24.7 3.3-45.7 8.3-62.8 14.9-29 11.3-45.9 27.1-50.3 47-4.2 19 3.6 39.4 23 60.8l0.1 0.1c0.4 0.4 0.7 0.8 1.1 1.2 18.1 19.4 45.5 39.2 81.5 58.9 2.4 1.3 4.9 2.7 7.4 4 13.4 7.1 27.8 14.1 42.9 20.8 4.4 16.6 10.6 33.9 18.3 51.4 17.8 7.7 36.6 15.1 56.3 22.2-10.6-18.4-19.2-36.5-25.8-53.5 55.3 21.1 117.9 39.7 183.8 54.3 74 16.4 146.4 26.4 211.1 29.5-10.1 14.5-21.4 28.9-34.1 42.9 17.1 1.4 33.8 2.4 49.9 2.9 7.2-9.1 13.6-17.9 19.3-26.2 4.2-6.1 8.2-12.3 12.1-18.6 13.9-0.1 27.2-0.5 40.1-1.4 33.5-2.2 61.9-6.9 84.6-14 5-1.6 9.7-3.2 14.1-5 8.7-3.5 16.3-7.5 22.7-11.8-3.3-5.6-7.5-11-12.1-16.1-6.6 4.4-14.9 8.3-24.7 11.7-21.7 7.6-50.9 12.9-85.9 15.2-8.7 0.6-17.7 1-27 1.2 26.8-48.8 42.6-99.1 42.6-138.1V515c28 14.2 51.8 28.8 70.3 43.1 4.4 3.4 8.4 6.7 12.2 10.1 16.3 14.5 34.8 35.8 30.6 55-0.7 3-1.9 5.8-3.6 8.6 5.1 5.5 9.4 11 12.8 16.4 5.2-6.3 8.6-13.2 10.3-20.7 5-23-7.4-48-36.9-74.3z m-681.7-6.6c-0.7-0.4-1.5-0.8-2.2-1.2-33.9-18.7-59.6-37.7-75.5-55.3-0.1 0-0.1 0.1-0.2 0.1-6.3-6.4-10.4-13.4-11.9-16.1-5.6-9.7-7.8-18.6-6-26.6 4.8-21.9 39-38.3 93.6-46 10.9-1.5 22.6-2.7 35.1-3.5v137.8c0 9 0.9 18.7 2.5 28.8-12.4-5.9-24.3-11.9-35.4-18z m546-10.8c0 31.7-15.5 83.9-48.8 137.7-66.4-2.3-142-12.4-219.5-29.6-71.3-15.8-138.6-36.2-196.6-59.5-5.5-18.8-8.2-35.5-8.2-48.6V302.9c65.5-3.3 124.7-22.7 176.4-57.9 27.7-18.8 47.6-38.7 60.3-53.2 12.6 14.5 32.5 34.3 60.1 53.2 51.6 35.2 110.8 54.6 176.3 57.9v232.9z" fill="#002366"></path><path d="M242.2 443.2c-40.1 2.5-73 8.7-97.6 18.3-9.6 3.7-17.9 8-24.8 12.7 3 5.2 7.1 10.5 12.1 16.1 21.2-14 59.5-23.5 110.3-26.9v-20.2z" fill="#00A36C"></path><path d="M119.7 474.1c1.5 2.7 5.7 9.7 11.9 16.1 0.1 0 0.1-0.1 0.2-0.1-4.9-5.5-9-10.8-12.1-16 0.1 0 0.1 0 0 0zM917.8 648.2c-3.5-5.4-7.8-10.9-12.8-16.4-4.1-4.4-8.6-8.9-13.7-13.4-22.8-20.3-56.1-41.2-97-61.1-0.4 2.7-2.2 14.7-3.4 20.7 36.8 18.3 66.6 37.2 87.1 55.4 4.2 3.7 8.5 7.9 12.5 12.3 4.6 5 8.8 10.5 12.1 16.1 5.1 8.7 7.9 17.9 6 26.6-5.8 26.1-53.9 44.6-128.6 49.5-21.8 1.4-45.4 1.7-70.2 0.9-16.1-0.5-32.8-1.5-49.9-2.9-54.2-4.5-112.8-13.5-172.6-26.8-57.7-12.8-112.7-28.6-162.3-46.5-19.7-7.1-38.5-14.5-56.3-22.2-21.2-9.2-41-18.8-59-28.6-65.7-35.9-101.5-73-95.8-99.1 0.7-3 1.9-5.9 3.6-8.6l-0.1-0.1c-0.9-0.9-6.6-6.7-12.8-16.3-5.2 6.3-8.6 13.2-10.3 20.7-4.3 19.4 3.9 40.3 24.3 62.1 18.1 19.4 45.5 39.2 81.5 58.9 24.4 13.3 51.9 26.2 81.8 38.2 19.1 7.7 39.2 15.1 60.2 22.2 44 14.8 91.5 28 140.9 38.9 54.8 12.1 108.7 20.8 159.2 25.7 17.6 1.7 34.8 3 51.4 3.8 14.7 0.7 28.9 1.1 42.7 1.1 15.6 0 30.7-0.5 45-1.4 40.9-2.7 74.1-9.1 98.7-19 27.7-11.2 43.9-26.7 48.2-46.1 3.1-14.2-0.4-29.1-10.4-44.6z" fill="#00A36C"></path><path d="M117.4 504.1s-0.1 0-0.1-0.1c0 0 0.1 0 0.1 0.1z" fill="#00A36C"></path></g></symbol>








<!-- logo svg maintenance-support-->
<symbol id="maintenance-support"  viewBox="0 0 1600 800"><svg width="800" height="800" viewBox="0 0 1024 1024" class="icon" version="1.1" x="100"><path d="M370.1 737.5l13.7 7.3c15.6 8.2 33 15.6 51.3 21.1l14.7 4.6v68.7c0 16.5 11 20.2 20.2 20.2h82.4c9.2 0 20.2-3.7 20.2-20.2v-68.7l14.7-4.6c18.3-5.5 35.7-12.8 51.3-21.1l13.7-7.3 11 11c19.2 19.2 32.1 33 37.6 36.6 4.6 4.6 9.2 7.3 13.7 7.3 8.2 0 15.6-6.4 15.6-7.3l58.6-58.6c6.4-6.4 11.9-17.4 0-29.3l-48.5-48.5 7.3-13.7c8.2-15.6 15.6-33 21.1-51.3l4.6-14.7H842c16.5 0 20.2-11 20.2-20.2v-82.4c0-9.2-3.7-20.2-20.2-20.2h-68.7l-4.6-14.7c-6.4-17.4-12.8-34.8-22-50.4l-7.3-13.7 11-11 37.6-37.6c4.6-4.6 7.3-9.2 7.3-13.7 0-6.4-4.6-12.8-7.3-15.6L729.2 231c-1.8-1.8-8.2-7.3-15.6-7.3-4.6 0-9.2 1.8-13.7 7.3l-48.5 48.5-13.7-7.3c-15.6-8.2-33-15.6-50.4-21.1l-14.7-3.7v-69.6c0-17.4-14.7-20.2-21.1-20.2H470c-6.4 0-20.2 2.7-20.2 20.2v69.6l-14.7 4.6c-17.4 5.5-34.8 11.9-50.4 21.1l-13.7 7.3-49.4-49.4c-4.6-4.6-9.2-6.4-12.8-6.4-7.3 0-14.7 5.5-16.5 7.3l-58.6 57.7c-3.7 4.6-12.8 16.5 0 29.3l48.5 48.6-7.3 13.7c-8.2 15.6-15.6 33-21.1 50.4l-4.6 14.7h-68.7c-16.5 0.9-20.2 13.7-20.2 22v81.5c0 6.4 2.7 20.2 20.2 20.2h68.7l4.6 14.7c5.5 18.3 12.8 34.8 21.1 51.3l7.3 13.7-48.5 48.5c-11.9 11.9-4.6 23.8 0 29.3l57.7 57.7c1.8 0.9 9.2 6.4 15.6 6.4 4.6 0 8.2-1.8 12.8-6.4l50.3-47.7z" fill="var(--bg-rgba)" /><path d="M496.4 699.1h-0.8c-3.5-0.3-7-0.7-10.5-1.1-5.5-0.7-9.3-5.8-8.6-11.3s5.8-9.3 11.3-8.6c3.1 0.4 6.3 0.8 9.4 1 5.5 0.4 9.6 5.3 9.2 10.8-0.5 5.3-4.9 9.2-10 9.2z m39.8-1.1c-4.9 0-9.2-3.6-9.9-8.6-0.8-5.5 3.1-10.5 8.5-11.3 3.1-0.4 6.2-0.9 9.3-1.5 5.4-1.1 10.7 2.5 11.7 7.9s-2.5 10.7-7.9 11.7c-3.4 0.7-6.9 1.3-10.4 1.7-0.3 0.1-0.8 0.1-1.3 0.1z m-88.5-9.7c-1.2 0-2.3-0.2-3.5-0.6-3.3-1.2-6.6-2.6-9.8-4-5.1-2.2-7.4-8.1-5.1-13.2 2.2-5.1 8.1-7.4 13.2-5.1 2.9 1.3 5.8 2.5 8.8 3.6 5.2 1.9 7.8 7.7 5.9 12.9-1.6 3.9-5.4 6.4-9.5 6.4z m136.5-3.8c-3.8 0-7.5-2.2-9.2-6-2.2-5.1 0.1-11 5.1-13.2 2.9-1.3 5.7-2.6 8.5-4 4.9-2.5 10.9-0.5 13.4 4.4s0.5 10.9-4.4 13.4c-3.1 1.6-6.3 3.1-9.5 4.5-1.2 0.6-2.5 0.9-3.9 0.9z m-180.3-19.9c-2.1 0-4.1-0.6-5.9-1.9-2.8-2.1-5.6-4.3-8.3-6.5-4.3-3.5-4.9-9.8-1.4-14.1 3.5-4.3 9.8-4.9 14.1-1.4 2.4 2 4.9 4 7.5 5.8 4.5 3.3 5.4 9.5 2.1 14-2 2.7-5.1 4.1-8.1 4.1z m222.7-6.3c-2.9 0-5.7-1.2-7.7-3.6-3.5-4.3-2.9-10.6 1.3-14.1 2.4-2 4.8-4.1 7.1-6.2 4.1-3.7 10.4-3.5 14.1 0.6 3.7 4.1 3.5 10.4-0.6 14.1-2.6 2.4-5.2 4.7-7.9 6.9-1.8 1.6-4.1 2.3-6.3 2.3z m-258.5-28.4c-3 0-5.9-1.3-7.9-3.8-2.2-2.8-4.3-5.6-6.3-8.5-3.2-4.5-2-10.8 2.5-13.9 4.5-3.2 10.8-2 13.9 2.5 1.8 2.6 3.7 5.1 5.6 7.6 3.4 4.4 2.6 10.6-1.7 14-1.8 1.4-3.9 2.1-6.1 2.1z m292.2-8.2c-2 0-4-0.6-5.7-1.8-4.5-3.1-5.7-9.4-2.5-13.9 1.8-2.6 3.5-5.2 5.2-7.9 2.9-4.7 9.1-6.2 13.8-3.3 4.7 2.9 6.2 9.1 3.3 13.8-1.8 3-3.8 5.9-5.8 8.8-2 2.8-5.1 4.3-8.3 4.3z m-317.2-34.9c-3.9 0-7.7-2.3-9.3-6.2-1.3-3.2-2.6-6.6-3.7-9.9-1.8-5.2 1-10.9 6.2-12.7 5.2-1.8 10.9 1 12.7 6.2 1 3 2.1 5.9 3.3 8.8 2.1 5.1-0.4 11-5.5 13-1.1 0.5-2.4 0.8-3.7 0.8z m339.8-9.6c-1.1 0-2.2-0.2-3.2-0.5-5.2-1.8-8-7.5-6.2-12.7 1-3 2-6 2.8-9 1.5-5.3 7-8.4 12.3-6.9 5.3 1.5 8.4 7 6.9 12.3-1 3.4-2 6.8-3.1 10.1-1.5 4.1-5.4 6.7-9.5 6.7z m-352-38.7c-5 0-9.4-3.8-9.9-8.9-0.4-3.5-0.7-7-0.9-10.5-0.3-5.5 3.9-10.2 9.4-10.5 5.5-0.3 10.2 3.9 10.5 9.4 0.2 3.1 0.4 6.3 0.8 9.4 0.6 5.5-3.3 10.4-8.8 11-0.4 0.1-0.8 0.1-1.1 0.1z m361.5-10.2h-0.6c-5.5-0.3-9.7-5-9.4-10.5 0.2-3.1 0.3-6.3 0.3-9.4 0-5.5 4.5-10 10-10s10 4.5 10 10c0 3.5-0.1 7-0.3 10.5-0.3 5.3-4.7 9.4-10 9.4z m-360.2-39.6c-0.5 0-1.1 0-1.6-0.1-5.5-0.9-9.1-6-8.2-11.5 0.6-3.5 1.2-6.9 2-10.4 1.2-5.4 6.5-8.8 11.9-7.6 5.4 1.2 8.8 6.5 7.6 11.9-0.7 3.1-1.3 6.2-1.8 9.3-0.9 4.9-5.1 8.4-9.9 8.4z m357.9-0.8c-4.8 0-9-3.5-9.8-8.3-0.5-3.1-1.1-6.2-1.8-9.3-1.2-5.4 2.2-10.7 7.5-12 5.4-1.2 10.7 2.2 12 7.5 0.8 3.4 1.5 6.9 2 10.4 0.9 5.4-2.8 10.6-8.2 11.5-0.6 0.2-1.1 0.2-1.7 0.2z m-343.2-46.8c-1.4 0-2.9-0.3-4.3-1-5-2.4-7.1-8.3-4.8-13.3 1.5-3.2 3.1-6.3 4.8-9.4 2.6-4.9 8.7-6.7 13.6-4 4.9 2.6 6.7 8.7 4 13.6-1.5 2.8-2.9 5.6-4.3 8.4-1.6 3.6-5.2 5.7-9 5.7z m328.2-0.7c-3.7 0-7.3-2.1-9-5.7-1.3-2.8-2.8-5.7-4.3-8.4-2.6-4.8-0.9-10.9 4-13.6 4.8-2.6 10.9-0.9 13.6 4 1.7 3.1 3.3 6.2 4.8 9.4 2.4 5 0.3 11-4.7 13.3-1.5 0.7-2.9 1-4.4 1z m-300.9-41.1c-2.3 0-4.7-0.8-6.6-2.5-4.2-3.6-4.6-9.9-1-14.1 2.3-2.6 4.7-5.3 7.1-7.8 3.8-4 10.2-4.1 14.1-0.2 4 3.8 4.1 10.2 0.2 14.1-2.2 2.2-4.3 4.6-6.4 7-1.8 2.4-4.6 3.5-7.4 3.5z m273.6-0.5c-2.8 0-5.5-1.2-7.5-3.4-2.1-2.4-4.2-4.7-6.4-6.9-3.9-4-3.8-10.3 0.2-14.1 3.9-3.9 10.3-3.8 14.1 0.2 2.4 2.5 4.9 5.1 7.2 7.7 3.6 4.2 3.2 10.5-0.9 14.1-2.1 1.6-4.4 2.4-6.7 2.4z m-236.1-32.3c-3.3 0-6.4-1.6-8.4-4.5-3-4.6-1.7-10.8 2.9-13.8 2.9-1.9 5.9-3.8 9-5.5 4.8-2.8 10.9-1.1 13.7 3.6 2.8 4.8 1.2 10.9-3.6 13.7-2.7 1.6-5.4 3.2-8 5-1.8 1-3.7 1.5-5.6 1.5z m198.4-0.3c-1.9 0-3.8-0.5-5.4-1.6-2.6-1.7-5.3-3.4-8.1-4.9-4.8-2.8-6.4-8.9-3.7-13.7s8.9-6.4 13.7-3.7c3 1.7 6.1 3.6 9 5.5 4.6 3 5.9 9.2 2.9 13.8-1.9 3-5.1 4.6-8.4 4.6z m-153.4-21c-4.3 0-8.2-2.7-9.5-7-1.7-5.3 1.3-10.9 6.5-12.5 3.3-1.1 6.8-2 10.1-2.9 5.4-1.4 10.8 1.9 12.2 7.2 1.4 5.4-1.9 10.8-7.2 12.2-3 0.8-6.1 1.6-9.1 2.6-1 0.2-2 0.4-3 0.4zM565 345c-1 0-2-0.1-3-0.5-3-0.9-6-1.8-9.1-2.5-5.4-1.3-8.6-6.8-7.3-12.1 1.3-5.4 6.8-8.6 12.1-7.3 3.4 0.9 6.8 1.8 10.2 2.8 5.3 1.6 8.2 7.2 6.6 12.5-1.3 4.3-5.2 7.1-9.5 7.1z m-59.2-8.1c-5.4 0-9.8-4.3-10-9.7-0.2-5.5 4.2-10.1 9.7-10.3 3.5-0.1 7.1-0.1 10.5 0 5.5 0.1 9.9 4.7 9.7 10.3-0.1 5.4-4.6 9.7-10 9.7h-0.3c-3.1-0.1-6.3-0.1-9.5 0h-0.1z" fill="var(--primary-color)" /><path d="M552.4 879.1H470c-24 0-40.2-16.1-40.2-40.2v-54l-0.5-0.2c-18.8-5.7-37.2-13.2-54.8-22.5l-1.1-0.6-39.7 37.6c-5.3 5.2-13.8 12.1-26.8 12.1-10.9 0-20.1-5.7-24.5-8.5-0.2-0.1-0.3-0.2-0.5-0.3l-2.4-1.2-60.6-60.6-0.6-0.7c-15.2-18.2-14.7-40.3 1.2-56.3l38.1-38.1-0.6-1.1c-7-13.9-15.8-32.6-22.3-54.4l-0.2-0.5h-54c-27.6 0-40.2-20.8-40.2-40.2V468c0-19.8 12.1-40.5 39-42h55.1l0.2-0.6c5.8-18.4 13.6-36.9 22.5-53.8l0.4-0.7-38.1-38.1c-6-6-23.9-27.9-1.5-56l0.7-0.9 59.5-58.5c1.4-1.4 13.9-13.1 30.5-13.1 9.5 0 19.1 4.4 27 12.3l39 39 0.3-0.2c18.4-10.8 38.6-17.8 54.1-22.7l0.7-0.2v-54.9c0-27.6 20.8-40.2 40.2-40.2h81.5c5 0 14.6 0.9 23.7 6.7 11.2 7.2 17.3 19 17.3 33.4v54l0.7 0.2c18.3 5.8 36.9 13.5 53.7 22.5l0.7 0.4 37.5-37.5c9.8-11.3 20.9-13.8 28.4-13.8 15.3 0 26.6 10.1 29.7 13.2l58.6 58.6c6.4 6.4 13.2 17.5 13.2 29.7 0 9.8-4.4 19.1-13.2 27.9l-38.1 38.1 0.2 0.3c10 17 16.7 35.4 23.3 53.2l0.5 1.6h54c24 0 40.2 16.1 40.2 40.2v82.4c0 24-16.1 40.2-40.2 40.2h-54l-0.2 0.5c-5.7 18.8-13.2 37.3-22.5 54.8l-0.4 0.7 38.1 38.1c9.7 9.7 14.2 21.6 12.5 33.6-1.2 8.7-5.5 17-12.5 24L745.3 798c-7.1 9-20.5 14.2-30.8 14.2-9.3 0-18.2-4-26.6-11.9-5.2-3.9-11.7-10.5-24.5-23.4-4.3-4.3-9.1-9.2-14.3-14.5l-0.5-0.5-0.7 0.4c-17.6 9.3-36 16.9-54.8 22.5l-0.5 0.2v54c0 24-16.2 40.1-40.2 40.1z m-82.4-38z m-0.2-2h82.6V755.5l28.9-9c16.4-4.9 32.4-11.5 47.7-19.6l26.8-14.3 21.5 21.5c5.4 5.4 10.2 10.3 14.5 14.7 8.5 8.7 17.4 17.6 20 19.5l1.7 1.1 1.3 1.4 0.5 0.5 59.1-59.1c0.2-0.2 0.3-0.4 0.5-0.5-0.1-0.2-0.3-0.3-0.5-0.5l-59-59 14.3-26.8c8.1-15.2 14.6-31.3 19.6-47.6l0.1-0.2 9-28.7H842v-82.5-0.1H758.4l-8.8-28.2c-6.2-16.9-12.1-32.8-20.3-46.7l-0.4-0.7-14.3-26.8 59-59 0.5-0.5c-0.2-0.2-0.3-0.4-0.5-0.6L715 245.2c-0.2-0.1-0.3-0.3-0.6-0.5L655 303.9l-26.8-14.3c-14.5-7.7-30.6-14.4-46.4-19.5l-29.2-7.3v-85.2-0.1c-0.4-0.1-0.7-0.1-1.1-0.1H470h-0.1V261.8l-28.7 9c-13.6 4.3-31.2 10.4-46.2 19.2l-0.7 0.4-26.8 14.3-59.7-59.7c-0.6 0.3-1.1 0.7-1.5 1l-57.5 56.6c-0.5 0.6-0.8 1.1-1.1 1.5l0.3 0.3 59 59-14.3 26.8c-7.8 14.7-14.6 30.9-19.6 47l-8.9 28.6h-82.7c-0.2 0-0.4 0.1-0.6 0.1-0.1 0.5-0.2 1.1-0.2 1.9v81.6h83.5l9 28.9c4.4 14.6 10.5 29.4 19.7 47.9l14.2 26.6-59 59-0.3 0.3c0.2 0.4 0.5 0.9 1 1.5l55.2 55.2c0.6 0.3 1.4 0.9 2.3 1.3l60.8-57.5 26.4 14.1c15.2 8.1 31.3 14.6 47.6 19.6l0.2 0.1 28.7 9V839c-0.2 0-0.2 0.1-0.2 0.1z m-187.4-36.3z m-35.5-89.7z m529.1-0.3zM246.8 303.3z m59.6-57.5l-0.2 0.2c0.1-0.1 0.2-0.1 0.2-0.2z m3-1.5z m-3.2-0.4z m406.5-0.6z m3.4-0.6z" fill="var(--primary-color)" /><path d="M655.5 607.1l-11-10.2 3.6-6.8c26.9-50.8 17.1-114.6-23.8-155.1-33.6-33.3-82.1-45.7-127-33.5l78.8 78c18.1 17.9 18.2 47.2 0.3 65.3l-28 28.3c-8.7 8.8-20.2 13.6-32.6 13.7h-0.2c-12.2 0-23.8-4.7-32.5-13.4l-78.8-78c-11.7 45 1.2 93.4 34.8 126.7 40.9 40.5 104.8 49.6 155.3 22.2l6.8-3.7 182.1 192.8c5.6 6 13.2 9.3 21.4 9.4 8.2 0.1 15.9-3.1 21.6-8.9l13.8-13.9c5.8-5.8 8.8-13.5 8.7-21.7-0.2-8.2-3.6-15.8-9.6-21.3l-180-166.6-3.7-3.3z" fill="var(--cta)" /><path d="M669.2 592.5c12.3-26.6 16.8-56.8 12.5-85.9 4.3 29.2-0.2 59.4-12.5 85.9zM866.9 785.5c0.4 1.6 0.8 3.2 1.1 4.9-0.3-1.7-0.6-3.3-1.1-4.9zM672.7 595.8l-3.5-3.3zM655.5 607.1l3.6 3.4-3.6-3.4zM655.5 607.1l-11-10.2 11 10.2z" fill="var(--primary-color)" /><path d="M868 790.4c-0.3-1.6-0.7-3.3-1.1-4.9-0.3-1.1-0.6-2.2-1-3.3-2.7-7.5-7.1-14.3-13.1-19.9l-180-166.6-3.5-3.2c12.3-26.6 16.8-56.8 12.5-85.9-4.8-32.8-19.8-62.4-43.4-85.8-43.1-42.6-107.2-55.5-163.4-32.8l-14.1 5.7 101.1 100c5 4.9 7.7 11.5 7.8 18.5 0 7-2.7 13.6-7.6 18.5l-28 28.3c-4.9 5-11.5 7.7-18.5 7.8h-0.1c-6.9 0-13.5-2.7-18.4-7.6L396 459.2l-5.5 14.2c-22.1 56.4-8.5 120.4 34.6 163 23.6 23.4 53.4 38 86.2 42.5 29.2 3.9 59.3-0.8 85.8-13.4l171.7 181.8c9.4 9.9 22.1 15.5 35.7 15.6h0.6c13.4 0 26-5.2 35.5-14.8l13.8-13.9c9.6-9.7 14.7-22.6 14.4-36.2-0.1-2.6-0.3-5.2-0.8-7.6z m-63.3 52.5c-8.2-0.1-15.8-3.4-21.4-9.4L601.2 640.7l-6.8 3.7c-50.5 27.4-114.4 18.3-155.3-22.2-33.6-33.3-46.5-81.6-34.8-126.7l78.8 78c8.7 8.6 20.2 13.4 32.5 13.4h0.2c12.3-0.1 23.9-4.9 32.6-13.7l28-28.3c17.9-18.1 17.8-47.4-0.3-65.3l-78.8-78c44.9-12.2 93.4 0.2 127 33.5 40.9 40.5 50.7 104.2 23.8 155.1l-3.6 6.8 11 10.2 3.6 3.4 180 166.6c6 5.6 9.4 13.1 9.6 21.3 0.2 8.2-2.9 15.9-8.7 21.7L826.3 834c-5.7 5.8-13.4 8.9-21.6 8.9z" fill="var(--primary-color)" /><path d="M838.5 772.8c-2.4 0-4.9-0.9-6.8-2.7L668.1 618.7c-4.1-3.8-4.3-10.1-0.5-14.1 3.8-4.1 10.1-4.3 14.1-0.5l163.6 151.4c4.1 3.8 4.3 10.1 0.5 14.1-2 2.1-4.7 3.2-7.3 3.2z" fill="var(--secondary-color)" /></svg><svg width="800" height="800" viewBox="0 0 1024 1024" class="icon" version="1.1" xmlns="http://www.w3.org/2000/svg" x="750" y="000"><path d="M925 620.2H407.3c-22 0-39.9-17.9-39.9-39.9V305.8c0-22 17.9-39.9 39.9-39.9H925c22 0 39.9 17.9 39.9 39.9v274.6c0 22-17.9 39.8-39.9 39.8z" fill="var(--bg-rgba)" /><path d="M443.2 699.1c-16.6-11.6-30.4-16.7-40.9-15.2-8.1 1.2-14.2 6.2-20.8 11.5-7 5.7-14.9 12.2-25.7 12.5-10.1 0.3-20.4-5.8-34.2-20.2-22.1-23.1-64.1-81-63.5-112.9-0.3-5.1 0.1-16.4 8-25.1 5.3-5.8 12.6-9 20.8-9 1.6-0.5 6.7-3.1 11-9.9 5.5-8.7 10.5-25.2 3.2-54.8-12.8-52.2-33.6-60.8-36.5-61.8h-1.2c-7.1 0-33.5 1.3-53 19.7-15.9 15.1-23.8 38.6-23.3 70 1.1 71.3 29.5 142.1 84.5 210.4 25.6 31.8 97.9 96.5 158 93.4 44.4-2.3 56.7-43.9 57.5-46.5l0.3-1.4c0.6-4.1 1.7-28.6-44.2-60.7z" fill="var(--cta)" /><path d="M431.7 402.4h68.1c-14.1 17.7-25.3 37.8-33.7 60.2-8.4 22.5-12.9 44.5-13.4 66.1h28.9c-0.1-13.8 2.2-29.4 6.8-47 4.6-17.5 11.2-34.1 20-49.6 8.7-15.6 17.3-27.5 25.8-35.8v-21.7H431.7v27.8zM659.7 415.5h-35.2l-21.1 31.2-20-31.2h-36.6l39.2 54.9-40.9 58.3h35.1l23.2-35 23.1 35h36.7l-41.8-59.5zM740.3 475.3c9.4-8.7 16-15.3 19.6-19.9 5.5-7 9.5-13.6 12-20s3.8-13.1 3.8-20.1c0-12.4-4.4-22.7-13.2-31-8.8-8.3-20.9-12.5-36.3-12.5-14.1 0-25.8 3.6-35.2 10.8-9.4 7.2-15 19-16.7 35.5l29.8 3c0.6-8.7 2.7-15 6.4-18.8 3.7-3.8 8.7-5.7 14.9-5.7 6.3 0 11.3 1.8 14.9 5.4 3.6 3.6 5.4 8.7 5.4 15.4 0 6-2.1 12.2-6.2 18.3-3.1 4.5-11.3 13-24.8 25.6-16.8 15.6-28 28.1-33.7 37.5-5.7 9.4-9.1 19.4-10.2 29.9h105v-27.8h-59.5c1.6-2.7 3.6-5.5 6.1-8.3 2.5-2.8 8.5-8.6 17.9-17.3zM883.7 371.8h-25.2L790.7 471v26.2h64v31.4h29v-31.4h19.4V471h-19.4v-99.2z m-29 99.2h-35.9l35.9-53.4V471zM634.1 666c-4.5-2.5-10.2-0.9-12.8 3.6-1.5 2.6-3 5.3-4.6 7.9-2.7 4.4-1.2 10.2 3.2 12.9 1.5 0.9 3.2 1.3 4.8 1.3 3.2 0 6.3-1.6 8-4.5 1.6-2.7 3.3-5.5 4.9-8.3 2.6-4.7 1-10.4-3.5-12.9zM609.4 705.7c-4.1-3.2-10-2.4-13.1 1.7-1.8 2.4-3.7 4.8-5.7 7.1-3.3 4-2.7 9.9 1.3 13.2 1.7 1.4 3.8 2.1 5.9 2.1 2.7 0 5.4-1.2 7.3-3.4 2-2.5 4-5 6-7.6 3.2-4 2.4-9.9-1.7-13.1zM566 741.4l-6.6 6.3c-3.8 3.5-4 9.4-0.5 13.2 1.8 2 4.4 3 6.9 3 2.3 0 4.5-0.8 6.3-2.5 2.4-2.2 4.7-4.4 7-6.6 3.7-3.6 3.8-9.5 0.2-13.2-3.6-3.7-9.6-3.8-13.3-0.2zM652.9 623.1c-4.8-1.9-10.3 0.5-12.1 5.3-1.1 2.8-2.2 5.7-3.4 8.4-2 4.8 0.2 10.3 5 12.3 1.2 0.5 2.4 0.7 3.6 0.7 3.7 0 7.1-2.2 8.6-5.7 1.2-3 2.5-6 3.6-8.9 1.9-4.8-0.5-10.3-5.3-12.1zM531.3 770.8c-2.4 1.8-4.9 3.6-7.4 5.3-4.3 2.9-5.3 8.8-2.4 13 1.8 2.6 4.7 4.1 7.7 4.1 1.8 0 3.7-0.5 5.3-1.6 2.6-1.8 5.3-3.7 7.9-5.6 4.2-3.1 5.1-8.9 2-13.1-3.1-4.3-8.9-5.2-13.1-2.1z" fill="var(--primary-color)" /><path d="M927.4 265.9H592.6c0.3-5.5-1.7-11-6.1-15-63.8-57.7-146.4-89.5-232.5-89.5-46.8 0-92.2 9.2-135 27.3-41.3 17.5-78.4 42.5-110.2 74.3S52 331.9 34.5 373.2C16.4 416 7.2 461.4 7.2 508.2s9.2 92.2 27.3 135C52 684.5 77 721.6 108.8 753.4c31.8 31.8 68.9 56.8 110.2 74.3 42.8 18.1 88.2 27.3 135 27.3 22.9 0 45.8-2.2 68-6.7 2.6-0.5 5-1.6 7.1-3 0.8 0 1.7-0.1 2.5-0.1 27.6-1.4 51.3-12.8 69-33.1 1.6-1.8 3.2-3.7 4.7-5.7 0.4-0.5 0.8-1 1.2-1.6 11.3-15.4 15.8-30 16.8-33.5 2.7-8.6 12.2-53.5-58.6-102.8-58.9-41.1-91.2-14.7-106.8-2-0.7 0.6-1.6 1.3-2.4 1.9-6.8-5.8-19.7-19.8-34.3-41.3-18.1-26.6-24.7-44-25.6-50 10.5-2.6 21.4-9.9 29.5-20.1 12-15.1 23.9-42.9 12.4-90-7.7-31.3-19.4-55.3-35-71.2-15.6-15.9-29.7-18.5-33.7-18.9-0.5 0-47.5-3.9-83 28.7-24.7 22.6-36.8 55.9-36.2 98.9 0.8 50.7 13.9 101.5 38.9 151 20.8 41.1 44.9 71.1 53.9 82.3 14.8 18.4 49.8 53.9 92.6 79-161.7-9.9-290.3-144.5-290.3-308.7 0-170.5 138.7-309.3 309.3-309.3 70.2 0 137.7 23.7 192.3 67H404.9c-20.7 0-37.5 16.8-37.5 37.5v279.4c0 20.7 16.8 37.5 37.5 37.5h522.6c20.7 0 37.5-16.8 37.5-37.5V303.4c-0.1-20.7-16.9-37.5-37.6-37.5zM271.6 714.2c-55-68.4-83.4-139.2-84.5-210.4-0.5-31.4 7.4-54.9 23.3-70 19.5-18.4 45.9-19.7 53-19.7h1.2c2.9 1 23.7 9.6 36.5 61.8 7.3 29.6 2.2 46.2-3.2 54.8-4.3 6.9-9.4 9.4-11 9.9-8.2 0.1-15.6 3.2-20.8 9-7.9 8.7-8.3 20-8 25.1-0.6 31.9 41.4 89.9 63.5 112.9 13.9 14.5 24.1 20.5 34.2 20.2 10.8-0.3 18.7-6.8 25.7-12.5 6.5-5.3 12.6-10.3 20.8-11.5 10.5-1.5 24.3 3.6 40.9 15.2 46 32.1 44.8 56.6 44.2 60.6l-0.3 1.4c-0.7 2.6-13 44.2-57.5 46.5-60.1 3.3-132.4-61.4-158-93.3z m674.6-131.4c0 10.3-8.4 18.7-18.7 18.7H404.9c-10.3 0-18.7-8.4-18.7-18.7V303.4c0-10.3 8.4-18.7 18.7-18.7h522.6c10.3 0 18.7 8.4 18.7 18.7v279.4z" fill="var(--primary-color)" /><path d="M1014.6 484.2c-5.2 0-9.4 4.2-9.4 9.4v126.3c0 23.5-19.1 42.6-42.6 42.6H710.5c-5.2 0-9.4 4.2-9.4 9.4s4.2 9.4 9.4 9.4h252.2c33.8 0 61.3-27.5 61.3-61.3V493.6c0-5.2-4.2-9.4-9.4-9.4z" fill="var(--secondary-color)" /></svg></symbol>










<!--logo svg analyse-->
<symbol id="analyse"  viewBox="0 0 1024 1024" fill="black" class="icon" version="1.1" xmlns="http://www.w3.org/2000/svg"><g id="SVGRepo_bgCarrier" stroke-width="0"></g><g id="SVGRepo_tracerCarrier" stroke-linecap="round" stroke-linejoin="round"></g><g id="SVGRepo_iconCarrier">
<path d="M624.008 80.026h-224a8.002 8.002 0 0 1-6.656-3.562l-31.998-47.998a7.992 7.992 0 0 1 2.218-11.092 7.99 7.99 0 0 1 11.094 2.218l29.624 44.434h216.408l45.64-45.654a8 8 0 0 1 11.308 11.312l-47.98 47.998a8.004 8.004 0 0 1-5.658 2.344zM352.01 64.028H168.02c-4.42 0-8-3.578-8-8 0-4.42 3.578-8 8-8h183.99c4.42 0 8 3.578 8 8a7.998 7.998 0 0 1-8 8zM855.98 64.028h-183.988c-4.422 0-8-3.578-8-8 0-4.42 3.578-8 8-8h183.988c4.422 0 8 3.578 8 8 0 4.422-3.578 8-8 8zM575.996 48.028h-127.992c-4.42 0-8-3.578-8-8 0-4.422 3.578-8 8-8h127.992c4.422 0 8 3.578 8 8 0 4.422-3.578 8-8 8zM823.98 879.976h-63.996c-4.422 0-8-3.578-8-7.998 0-4.422 3.578-8 8-8h63.996c4.422 0 8 3.578 8 8a7.994 7.994 0 0 1-8 7.998zM759.984 943.972c-4.422 0-8-3.578-8-7.998v-63.996c0-4.422 3.578-8 8-8s8 3.578 8 8v63.996a7.994 7.994 0 0 1-8 7.998zM168.02 975.972c-4.42 0-8-3.578-8-8V56.028c0-4.42 3.578-8 8-8 4.422 0 8 3.578 8 8v911.946a7.994 7.994 0 0 1-8 7.998zM855.98 895.976c-4.422 0-8-3.578-8-8V56.028c0-4.42 3.578-8 8-8s8 3.578 8 8v831.95a7.994 7.994 0 0 1-8 7.998z M775.984 975.972a8 8 0 0 1-5.656-13.656l79.996-79.996a8 8 0 1 1 11.312 11.312l-79.996 79.996a7.964 7.964 0 0 1-5.656 2.344z M775.984 975.972H168.02c-4.42 0-8-3.578-8-8s3.578-8 8-8h607.964c4.422 0 8 3.578 8 8s-3.578 8-8 8z M903.976 1023.968c-4.422 0-8-3.578-8-8V8.032c0-4.422 3.578-8 8-8s8 3.578 8 8v1007.938a7.994 7.994 0 0 1-8 7.998z M903.976 1023.968H120.024c-4.422 0-8-3.578-8-8s3.578-8 8-8h783.952c4.422 0 8 3.578 8 8s-3.578 8-8 8z M120.024 1023.968c-4.422 0-8-3.578-8-8V8.032c0-4.422 3.578-8 8-8 4.42 0 8 3.578 8 8v1007.938a7.994 7.994 0 0 1-8 7.998z M903.976 16.03H120.024c-4.422 0-8-3.578-8-8 0-4.422 3.578-8 8-8h783.952c4.422 0 8 3.578 8 8 0 4.422-3.578 8-8 8z M791.984 528H232.008c-4.42 0-8-3.578-8-8s3.578-8 8-8h559.976c4.422 0 8 3.578 8 8s-3.578 8-8 8z" fill="var(--primary-color)"></path>
<path d="M232.016 448.004c-4.42 0-8-3.578-8-8V168.022c0-4.422 3.578-8 8-8 4.422 0 8 3.578 8 8v271.982c0 4.422-3.578 8-8 8zM536 448.004H232.016c-4.42 0-8-3.578-8-8 0-4.42 3.578-8 8-8H536c4.422 0 8 3.578 8 8 0 4.422-3.578 8-8 8zM384.008 895.976c-79.394 0-143.992-64.59-143.992-143.992a7.994 7.994 0 0 1 8-7.998c4.42 0 8 3.578 8 7.998 0 70.574 57.418 127.992 127.992 127.992S512 822.558 512 751.984c0-4.42 3.578-7.998 8-7.998s8 3.578 8 7.998c0 79.402-64.598 143.992-143.992 143.992zM437.692 743.986a8.018 8.018 0 0 1-7.672-5.718c-6-20.186-24.92-34.28-46.012-34.28s-40.012 14.094-46.012 34.28c-1.266 4.234-5.672 6.624-9.954 5.39a8.012 8.012 0 0 1-5.39-9.954c8.006-26.92 33.232-45.716 61.356-45.716s53.348 18.796 61.356 45.716a8.012 8.012 0 0 1-5.39 9.954 8.336 8.336 0 0 1-2.282 0.328zM791.984 671.99h-191.988c-4.422 0-8-3.578-8-8a7.994 7.994 0 0 1 8-7.998h191.988c4.422 0 8 3.578 8 7.998 0 4.422-3.578 8-8 8zM791.984 719.988h-191.988c-4.422 0-8-3.578-8-8s3.578-8 8-8h191.988c4.422 0 8 3.578 8 8s-3.578 8-8 8zM791.984 767.984h-191.988c-4.422 0-8-3.578-8-8s3.578-8 8-8h191.988c4.422 0 8 3.578 8 8s-3.578 8-8 8zM679.988 815.98h-79.992c-4.422 0-8-3.578-8-7.998 0-4.422 3.578-8 8-8h79.992c4.422 0 8 3.578 8 8a7.994 7.994 0 0 1-8 7.998zM791.984 256.016h-191.988c-4.422 0-8-3.578-8-8 0-4.42 3.578-8 8-8h191.988c4.422 0 8 3.578 8 8 0 4.422-3.578 8-8 8zM791.984 304.012h-191.988c-4.422 0-8-3.578-8-8 0-4.422 3.578-8 8-8h191.988c4.422 0 8 3.578 8 8 0 4.422-3.578 8-8 8zM791.984 352.01h-191.988c-4.422 0-8-3.578-8-8 0-4.42 3.578-8 8-8h191.988c4.422 0 8 3.578 8 8 0 4.422-3.578 8-8 8zM679.988 400.006h-79.992c-4.422 0-8-3.578-8-8 0-4.422 3.578-8 8-8h79.992c4.422 0 8 3.578 8 8 0 4.422-3.578 8-8 8z" fill="var(--secondary-color)"></path>
<path d="M264.014 384.008a8 8 0 0 1-5.656-13.656l95.994-95.994a8 8 0 1 1 11.312 11.312l-95.994 95.994a7.974 7.974 0 0 1-5.656 2.344zM408.006 336.01a7.976 7.976 0 0 1-5.656-2.344l-47.998-47.998a8 8 0 1 1 11.312-11.312l47.998 47.998a8 8 0 0 1-5.656 13.656zM408.006 336.01a8 8 0 0 1-5.656-13.656l127.994-127.992a8 8 0 1 1 11.312 11.312l-127.994 127.992a7.964 7.964 0 0 1-5.656 2.344zM536 240.016c-4.422 0-8-3.578-8-8V200.02c0-4.422 3.578-8 8-8s8 3.578 8 8v31.998a7.994 7.994 0 0 1-8 7.998zM536 208.018h-32c-4.422 0-8-3.578-8-8 0-4.422 3.578-8 8-8h32c4.422 0 8 3.578 8 8 0 4.422-3.578 8-8 8z
M384.008 863.978c-79.394 0-143.992-64.59-143.992-143.99 0-79.402 64.598-143.992 143.992-143.992S528 640.586 528 719.988c0 79.4-64.598 143.99-143.992 143.99z m0-271.982c-70.574 0-127.992 57.418-127.992 127.992 0 70.572 57.418 127.992 127.992 127.992S512 790.56 512 719.988c0-70.574-57.418-127.992-127.992-127.992zM248.016 759.984c-4.422 0-8-3.578-8-8v-31.996c0-4.422 3.578-8 8-8 4.42 0 8 3.578 8 8v31.996c0 4.422-3.578 8-8 8zM520 759.984c-4.422 0-8-3.578-8-8v-31.996c0-4.422 3.578-8 8-8s8 3.578 8 8v31.996c0 4.422-3.578 8-8 8zM384.008 783.984c-35.288 0-63.996-28.704-63.996-63.996 0-35.296 28.708-63.996 63.996-63.996s63.996 28.7 63.996 63.996c0 35.294-28.71 63.996-63.996 63.996z m0-111.994c-26.468 0-47.998 21.53-47.998 47.998 0 26.466 21.53 47.996 47.998 47.996s47.998-21.53 47.998-47.996c-0.002-26.468-21.53-47.998-47.998-47.998zM343.932 687.91a7.976 7.976 0 0 1-5.656-2.344l-56.074-56.074a7.996 7.996 0 1 1 11.31-11.31l56.076 56.074a7.996 7.996 0 0 1-5.656 13.654zM384.008 863.978c-4.42 0-8-3.578-8-8v-79.994c0-4.422 3.578-8 8-8s8 3.578 8 8v79.994a7.998 7.998 0 0 1-8 8z" fill="var(--cta)"></path></g></symbol>

<!--logo svg branding-->
<symbol id="branding"  viewBox="0 0 1024 1024" fill="black" class="icon" version="1.1" xmlns="http://www.w3.org/2000/svg"><g id="SVGRepo_bgCarrier" stroke-width="0"></g><g id="SVGRepo_tracerCarrier" stroke-linecap="round" stroke-linejoin="round"></g><g id="SVGRepo_iconCarrier">
<path d="M248.954 535.284a136.326 136.326 0 0 1-74.346-22.008c-30.744-19.924-51.838-50.536-59.394-86.206-7.542-35.6-0.704-72.042 19.252-102.624a136.98 136.98 0 0 1 28.658-31.782 8.01 8.01 0 0 1 11.25 1.196 8.012 8.012 0 0 1-1.194 11.248 120.438 120.438 0 0 0-25.318 28.074c-17.622 26.996-23.656 59.162-17.004 90.576 6.666 31.478 25.294 58.506 52.448 76.102 55.858 36.216 130.868 20.362 167.154-35.35a7.98 7.98 0 0 1 11.062-2.334 7.992 7.992 0 0 1 2.334 11.062c-26.17 40.17-70.106 62.046-114.902 62.046zM861.124 374.146a7.986 7.986 0 0 1-7.76-9.914c4.386-17.708 4.668-35.842 0.828-53.906-13.802-64.978-78.024-106.636-143.242-92.866-4.214 0.914-8.556-1.826-9.476-6.166a7.996 7.996 0 0 1 6.166-9.478c73.838-15.598 146.552 31.588 162.198 105.184 4.34 20.454 4.028 41.01-0.954 61.072a8 8 0 0 1-7.76 6.074zM784.804 224.316a7.992 7.992 0 0 1-7.994-8.558c0.766-10.828-0.046-21.938-2.404-33.032-13.13-61.792-70.436-102.496-133.06-94.596-4.326 0.454-8.386-2.552-8.932-6.942a7.994 7.994 0 0 1 6.932-8.922c71.23-8.892 135.84 37.184 150.706 107.132 2.67 12.554 3.576 25.162 2.716 37.482a7.994 7.994 0 0 1-7.964 7.436zM387.814 566.104c-39.324 0-79.788-9.852-112.052-36.458a7.982 7.982 0 0 1-1.084-11.25 7.984 7.984 0 0 1 11.25-1.086c50.652 41.752 130.634 38.644 187.43 17.02 34.436-13.11 51.752-29.628 53.274-39.434 0.68-4.364 4.874-7.298 9.12-6.674a8 8 0 0 1 6.684 9.124c-2.876 18.494-26.568 37.904-63.384 51.924-25.886 9.854-58.16 16.834-91.238 16.834zM329.168 225.768a8.01 8.01 0 0 1-7.816-6.33c-10.078-47.404-1.124-95.83 25.216-136.364 26.442-40.676 67.288-68.638 114.996-78.726 98.18-20.758 194.862 41.986 215.674 139.798a8 8 0 0 1-6.152 9.486c-4.214 0.92-8.57-1.828-9.492-6.16-18.97-89.208-107.252-146.418-196.718-127.478-43.532 9.204-80.786 34.702-104.894 71.792-24.022 36.952-32.18 81.1-22.982 124.326a8.008 8.008 0 0 1-6.16 9.484 8.24 8.24 0 0 1-1.672 0.172zM638.02 557.112c-42.392 0-82.348-15.038-115.3-43.922a7.996 7.996 0 0 1-0.742-11.282c2.912-3.334 7.948-3.646 11.29-0.742 39.02 34.21 88.842 47.044 140.37 36.162 25.418-5.402 48.496-16.186 68.59-32.056a7.986 7.986 0 0 1 11.226 1.32 8.004 8.004 0 0 1-1.326 11.234c-22.032 17.394-47.326 29.228-75.182 35.146-13.102 2.764-26.124 4.14-38.926 4.14zM199.512 391.104a7.994 7.994 0 0 1-6.52-3.358c-14.426-20.282-24.396-43.024-29.626-67.6-10.078-47.436-1.116-95.884 25.24-136.418 26.442-40.666 67.272-68.608 114.964-78.686a187.796 187.796 0 0 1 37.73-4.014h0.04a7.996 7.996 0 0 1 0.038 15.99 171.248 171.248 0 0 0-34.498 3.67c-43.516 9.188-80.764 34.678-104.872 71.754-24.03 36.958-32.196 81.128-23 124.378 4.77 22.422 13.856 43.164 27.004 61.652a7.996 7.996 0 0 1-6.5 12.632zM795.062 526.468c-28.134 0-49.962-7.184-50.462-7.356a7.994 7.994 0 0 1-4.996-10.124c1.436-4.194 6.01-6.426 10.132-5.012 4.028 1.342 98.602 32.18 137.636-47.928 29.212-59.988-28.262-124.606-28.856-125.254a7.996 7.996 0 0 1 0.578-11.29 7.98 7.98 0 0 1 11.29 0.562c2.67 2.966 65.25 73.384 31.352 142.984-25.278 51.896-71.028 63.418-106.674 63.418zM248.156 719.838a7.978 7.978 0 0 1-5.652-2.342l-15.988-15.988c-3.124-3.124-3.124-8.182 0-11.304s8.182-3.124 11.304 0l10.336 10.336 10.336-10.336c3.124-3.124 8.182-3.124 11.304 0s3.124 8.182 0 11.304l-15.988 15.988a7.97 7.97 0 0 1-5.652 2.342zM232.168 751.814a7.988 7.988 0 0 1-7.994-7.994v-47.964a7.988 7.988 0 0 1 7.994-7.994 7.988 7.988 0 0 1 7.994 7.994v47.964a7.988 7.988 0 0 1-7.994 7.994zM264.144 751.814a7.988 7.988 0 0 1-7.994-7.994v-47.964a7.988 7.988 0 0 1 7.994-7.994 7.988 7.988 0 0 1 7.994 7.994v47.964a7.988 7.988 0 0 1-7.994 7.994zM248.156 623.906a7.99 7.99 0 0 1-7.994-7.994v-63.956a7.99 7.99 0 0 1 7.994-7.994 7.99 7.99 0 0 1 7.994 7.994v63.956a7.988 7.988 0 0 1-7.994 7.994zM775.78 687.862a7.97 7.97 0 0 1-5.652-2.344l-15.988-15.988a7.992 7.992 0 1 1 11.304-11.304l10.336 10.338 10.336-10.338a7.992 7.992 0 0 1 11.304 0 7.988 7.988 0 0 1 0 11.304l-15.988 15.988a7.964 7.964 0 0 1-5.652 2.344zM759.792 719.838a7.99 7.99 0 0 1-7.994-7.994v-47.966c0-4.418 3.576-7.994 7.994-7.994s7.994 3.576 7.994 7.994v47.966a7.992 7.992 0 0 1-7.994 7.994zM791.768 719.838a7.99 7.99 0 0 1-7.994-7.994v-47.966a7.99 7.99 0 0 1 7.994-7.994 7.99 7.99 0 0 1 7.996 7.994v47.966a7.99 7.99 0 0 1-7.996 7.994zM775.78 591.93a7.99 7.99 0 0 1-7.994-7.994v-31.978a7.99 7.99 0 0 1 7.994-7.994 7.988 7.988 0 0 1 7.994 7.994v31.978a7.988 7.988 0 0 1-7.994 7.994zM503.974 751.814a7.99 7.99 0 0 1-7.996-7.994v-191.864a7.99 7.99 0 0 1 7.996-7.994 7.99 7.99 0 0 1 7.994 7.994v191.864a7.988 7.988 0 0 1-7.994 7.994z" fill="var(--primary-color)"></path>
<path d="M248.156 815.77c-39.674 0-71.948-32.274-71.948-71.95 0-23.794 12.14-46.186 31.978-59.504v-4.452a7.988 7.988 0 0 1 7.994-7.992h63.954a7.988 7.988 0 0 1 7.994 7.992v4.452c19.836 13.302 31.978 35.708 31.978 59.504 0 39.676-32.274 71.95-71.95 71.95z m-23.982-127.908v0.874a8.02 8.02 0 0 1-3.974 6.918c-17.534 10.196-28.002 28.198-28.002 48.168 0 30.854 25.108 55.96 55.96 55.96 30.854 0 55.96-25.108 55.96-55.96 0-19.97-10.47-37.988-28.004-48.168a8.026 8.026 0 0 1-3.974-6.918v-0.874h-47.966zM280.134 687.862H216.18a7.99 7.99 0 0 1-7.994-7.996V631.9c0-2.124 0.842-4.152 2.342-5.652l15.988-15.988a7.988 7.988 0 0 1 5.652-2.342h31.976a7.98 7.98 0 0 1 5.652 2.342l15.988 15.988a7.988 7.988 0 0 1 2.342 5.652v47.964a7.988 7.988 0 0 1-7.992 7.998z m-55.96-15.988h47.964v-36.662l-11.304-11.304h-25.356l-11.304 11.304v36.662zM280.134 655.882H216.18a7.988 7.988 0 0 1-7.994-7.994 7.99 7.99 0 0 1 7.994-7.994h63.954a7.99 7.99 0 0 1 7.994 7.994 7.988 7.988 0 0 1-7.994 7.994zM775.78 783.792c-39.674 0-71.95-32.274-71.95-71.948 0-23.794 12.148-46.186 31.978-59.504v-4.452a7.99 7.99 0 0 1 7.994-7.994h63.954a7.99 7.99 0 0 1 7.996 7.994v4.452c19.828 13.302 31.976 35.708 31.976 59.504 0 39.674-32.272 71.948-71.948 71.948z m-23.984-127.91v0.876c0 2.842-1.514 5.48-3.982 6.916-17.534 10.198-27.994 28.2-27.994 48.17 0 30.854 25.108 55.958 55.958 55.958 30.854 0 55.96-25.106 55.96-55.958 0-19.97-10.46-37.988-27.996-48.17a8.008 8.008 0 0 1-3.98-6.916v-0.876h-47.966zM807.756 655.882h-63.954a7.988 7.988 0 0 1-7.994-7.994v-47.964a7.98 7.98 0 0 1 2.342-5.652l15.988-15.988a7.99 7.99 0 0 1 5.652-2.344h31.976c2.124 0 4.154 0.844 5.652 2.344l15.988 15.988a7.982 7.982 0 0 1 2.344 5.652v47.964a7.986 7.986 0 0 1-7.994 7.994z m-55.96-15.988h47.966v-36.662l-11.304-11.302H763.1l-11.304 11.302v36.662zM807.756 623.906h-63.954c-4.418 0-7.994-3.576-7.994-7.994s3.576-7.994 7.994-7.994h63.954c4.42 0 7.996 3.576 7.996 7.994s-3.576 7.994-7.996 7.994zM535.952 815.77h-63.956a7.99 7.99 0 0 1-7.994-7.994v-47.964c0-2.124 0.844-4.154 2.342-5.652l15.988-15.99a7.992 7.992 0 0 1 5.652-2.342h31.978c2.124 0 4.152 0.844 5.652 2.342l15.988 15.99a7.99 7.99 0 0 1 2.342 5.652v47.964a7.988 7.988 0 0 1-7.992 7.994z m-55.96-15.988h47.966V763.12l-11.304-11.304h-25.358l-11.304 11.304v36.662zM535.952 783.792h-63.956a7.988 7.988 0 0 1-7.994-7.992 7.99 7.99 0 0 1 7.994-7.996h63.956a7.99 7.99 0 0 1 7.994 7.996 7.99 7.99 0 0 1-7.994 7.992z" fill="var(--secondary-color)"></path>
<path d="M503.974 943.678c-39.676 0-71.95-32.274-71.95-71.95 0-23.794 12.14-46.186 31.976-59.504v-4.45a7.99 7.99 0 0 1 7.994-7.994h63.956a7.99 7.99 0 0 1 7.994 7.994v4.45c19.83 13.302 31.976 35.708 31.976 59.504 0.002 39.676-32.272 71.95-71.946 71.95z m-23.982-127.908v0.874a8.02 8.02 0 0 1-3.974 6.918c-17.536 10.196-28.004 28.2-28.004 48.168 0 30.854 25.108 55.96 55.96 55.96s55.958-25.108 55.958-55.96c0-19.968-10.46-37.988-27.994-48.168a8.01 8.01 0 0 1-3.982-6.918v-0.874h-47.964zM503.974 847.746a7.96 7.96 0 0 1-5.652-2.342l-15.99-15.988a7.992 7.992 0 1 1 11.304-11.304l10.336 10.336 10.336-10.336a7.992 7.992 0 1 1 11.304 11.304l-15.99 15.988a7.95 7.95 0 0 1-5.648 2.342zM487.986 879.724a7.99 7.99 0 0 1-7.994-7.996v-47.964c0-4.418 3.576-7.994 7.994-7.994s7.994 3.576 7.994 7.994v47.964a7.99 7.99 0 0 1-7.994 7.996zM519.962 879.724a7.99 7.99 0 0 1-7.994-7.996v-47.964c0-4.418 3.576-7.994 7.994-7.994s7.994 3.576 7.994 7.994v47.964a7.99 7.99 0 0 1-7.994 7.996zM647.872 879.708h-47.966a7.988 7.988 0 0 1-7.992-7.996 7.986 7.986 0 0 1 7.992-7.992h47.966a7.988 7.988 0 0 1 7.994 7.992 7.99 7.99 0 0 1-7.994 7.996z  M408.042 879.708h-47.966a7.99 7.99 0 0 1-7.994-7.996 7.988 7.988 0 0 1 7.994-7.992h47.966a7.988 7.988 0 0 1 7.994 7.992 7.99 7.99 0 0 1-7.994 7.996z  M402.218 981.462a7.96 7.96 0 0 1-5.652-2.342 7.988 7.988 0 0 1 0-11.304l33.928-33.912a7.988 7.988 0 0 1 11.304 0 7.988 7.988 0 0 1 0 11.304l-33.928 33.912a7.956 7.956 0 0 1-5.652 2.342z  M503.974 1023.622a7.99 7.99 0 0 1-7.996-7.994v-47.964a7.99 7.99 0 0 1 7.996-7.996 7.99 7.99 0 0 1 7.994 7.996v47.964a7.992 7.992 0 0 1-7.994 7.994z  M605.744 981.462a7.968 7.968 0 0 1-5.652-2.342l-33.928-33.912a7.988 7.988 0 0 1 0-11.304 7.988 7.988 0 0 1 11.304 0l33.928 33.912a7.988 7.988 0 0 1 0 11.304 7.95 7.95 0 0 1-5.652 2.342z" fill="var(--cta)"></path>
</g></symbol>


<!-- Contenu de l'icône audit-securite -->
  <symbol id="audit-securite1" viewBox="0 0 24 24">
  </symbol>
  <symbol id="recommandations1" viewBox="0 0 24 24">
    <!-- Contenu de l'icône recommandations -->
  </symbol>
  <symbol id="conformite1" viewBox="0 0 24 24">
    <!-- Contenu de l'icône conformite -->
  </symbol>
  <symbol id="tests1" viewBox="0 0 24 24">
    <!-- Contenu de l'icône tests -->
  </symbol>
  <symbol id="formation1" viewBox="0 0 24 24">
    <!-- Contenu de l'icône formation -->
  </symbol>
  <symbol id="support1" viewBox="0 0 24 24">
    <!-- Contenu de l'icône support -->
  </symbol>





<!-- LOGO SVG audit-securite-->
<symbol id="test" viewBox="0 0 214.27 214.27" >
  <g id="SVGRepo_bgCarrier" stroke-width="0"></g>
  <g id="SVGRepo_tracerCarrier" stroke-linecap="round" stroke-linejoin="round"></g>
  <g id="SVGRepo_iconCarrier"> <g> 
    <path d="">

  </path> 


  </path> 




<path d="" fill="var(--secondary-color)"></path>

<path d="" fill="var(--cta)"></path>

<path d="" fill="var(--bg-rgba)"></path>

<path d="
M196.926,55.171c-0.11-5.785-0.215-11.25-0.215-16.537c0-4.142-3.357-7.5-7.5-7.5c-32.075,0-56.496-9.218-76.852-29.01 c-2.912-2.832-7.546-2.831-10.457,0c-20.354,19.792-44.771,29.01-76.844,29.01c-4.142,0-7.5,3.358-7.5,7.5 c0,5.288-0.104,10.755-0.215,16.541c-1.028,53.836-2.436,127.567,87.331,158.682c0.796,0.276,1.626,0.414,2.456,0.414 c0.83,0,1.661-0.138,2.456-0.414C199.36,182.741,197.954,109.008,196.926,55.171z M107.131,198.812 c-76.987-27.967-75.823-89.232-74.79-143.351c0.062-3.248,0.122-6.396,0.164-9.482c30.04-1.268,54.062-10.371,74.626-28.285 c20.566,17.914,44.592,27.018,74.634,28.285c0.042,3.085,0.102,6.231,0.164,9.477C182.961,109.577,184.124,170.844,107.131,198.812 z



" fill="red">




</path>
</g> </g>
</symbol>




<!-- LOGO SVG titre exemple-->
<symbol id="icon-enminuscule" >

<path d="



" fill="var(--primary-color)"></path>

<path d="" fill="var(--secondary-color)"></path>

<path d="" fill="var(--cta)"></path>

<path d="" fill="var(--bg-rgba)"></path>

<path d="" fill="red"></path>

</symbol>





<symbol  id="tests"    version="1.1"
	 viewBox="0 0 508 508" xml:space="preserve">
<g>
	<g>
		<path d="M448.8,81.3L371.6,4.1c-2.6-2.6-6.2-4.1-10-4.1H69.2c-7.8,0-14.1,6.3-14.1,14.1v479.8c0,7.8,6.3,14.1,14.1,14.1h369.6
			c7.8,0,14.1-6.3,14.1-14.1V91.3C452.9,87.5,451.4,83.9,448.8,81.3z M375.7,48.2l29,29h-29V48.2z M83.3,479.8V28.2h264.2v63
			c0,7.8,6.3,14.1,14.1,14.1h63v374.5H83.3z"/>
	</g>
</g>
<g>
	<g>
		<path d="M385.5,138.1H234.6c-7.8,0-14.1,6.3-14.1,14.1c0,7.8,6.3,14.1,14.1,14.1h150.9c7.8,0,14.1-6.3,14.1-14.1
			C399.6,144.4,393.3,138.1,385.5,138.1z"/>
	</g>
</g>
<g>
	<g>
		<path d="M385.5,271.3H234.6c-7.8,0-14.1,6.3-14.1,14.1c0,7.8,6.3,14.1,14.1,14.1h150.9c7.8,0,14.1-6.3,14.1-14.1
			C399.6,277.6,393.3,271.3,385.5,271.3z"/>
	</g>
</g>
<g>
	<g>
		<path d="M385.5,404.6H234.6c-7.8,0-14.1,6.3-14.1,14.1c0,7.8,6.3,14.1,14.1,14.1h150.9c7.8,0,14.1-6.3,14.1-14.1
			C399.6,410.9,393.3,404.6,385.5,404.6z"/>
	</g>
</g>
<g>
	<g>
		<path d="M189.1,104.8h-66.6c-7.8,0-14.1,6.3-14.1,14.1v66.6c0,7.8,6.3,14.1,14.1,14.1h66.6c7.8,0,14.1-6.3,14.1-14.1v-66.6
			C203.2,111.1,196.9,104.8,189.1,104.8z M175,171.4h-38.4V133H175V171.4z"/>
	</g>
</g>
<g>
	<g>
		<path d="M189.1,238.1h-66.6c-7.8,0-14.1,6.3-14.1,14.1v66.6c0,7.8,6.3,14.1,14.1,14.1h66.6c7.8,0,14.1-6.3,14.1-14.1v-66.6
			C203.2,244.4,196.9,238.1,189.1,238.1z M175,304.7h-38.4v-38.4H175V304.7z"/>
	</g>
</g>
<g>
	<g>
		<path d="M213.3,377.7c-5.6-5.5-14.5-5.5-20,0l-42.9,42.9l-17.8-17.8c-5.5-5.5-14.4-5.5-20,0c-5.5,5.5-5.5,14.4,0,20l27.8,27.8
			c2.8,2.8,6.4,4.1,10,4.1c3.6,0,7.2-1.4,10-4.1l52.9-52.9C218.8,392.2,218.8,383.3,213.3,377.7z"/>
	</g>
</g>
</symbol>










</svg>